<?xml version="1.0" encoding="UTF-8" standalone="no"?><!DOCTYPE svg PUBLIC "-//W3C//DTD SVG 1.1//EN" "http://www.w3.org/Graphics/SVG/1.1/DTD/svg11.dtd"><svg width="100%" height="100%" viewBox="0 0 246 246" version="1.1" xmlns="http://www.w3.org/2000/svg" xmlns:xlink="http://www.w3.org/1999/xlink" xml:space="preserve" xmlns:serif="http://www.serif.com/" style="fill-rule:evenodd;clip-rule:evenodd;stroke-linejoin:round;stroke-miterlimit:2;"><g id="FilledChefLabIcon"><path d="M79.275,172.598l87.21,0" style="fill:none;"/><path d="M75.648,166.118c-0.789,-0.319 -1.527,-0.774 -2.176,-1.352c-1.598,-1.423 -2.512,-3.461 -2.512,-5.601l0,-17.003c-19.137,-4.74 -33.417,-22.32 -33.417,-43.326c0,-24.653 19.659,-44.585 43.77,-44.585c1.018,0 2.029,0.036 3.03,0.106c7.358,-12.593 21.81,-21.297 38.538,-21.297c16.728,0 31.179,8.704 38.538,21.297c1.001,-0.07 2.011,-0.106 3.03,-0.106c24.111,0 43.77,19.932 43.77,44.585c0,21.006 -14.28,38.586 -33.417,43.326l-0,17.003c0,2.14 -0.914,4.178 -2.512,5.601c-0.65,0.578 -1.387,1.033 -2.176,1.352m-84.152,-0.58l73.84,0l0,-29.73c0,-3.911 3.005,-7.166 6.904,-7.476c14.871,-1.185 26.513,-13.988 26.513,-29.495c0,-16.283 -12.845,-29.585 -28.77,-29.585c-1.997,0 -3.946,0.209 -5.829,0.607c-3.591,0.76 -7.204,-1.189 -8.54,-4.608c-3.958,-10.13 -14.718,-17.191 -27.199,-17.191c-12.481,0 -23.242,7.06 -27.199,17.191c-1.336,3.419 -4.949,5.369 -8.54,4.608c-1.882,-0.399 -3.832,-0.607 -5.829,-0.607c-15.925,0 -28.77,13.302 -28.77,29.585c0,15.507 11.642,28.31 26.513,29.495c3.899,0.311 6.904,3.565 6.904,7.476l0,29.73Zm0,21.56l0,10.602l73.84,-0l0,-10.602l-73.84,0Z" style="fill:currentColor;"/><path d="M170.112,179.558c0.789,0.264 1.527,0.639 2.176,1.117c1.598,1.176 2.512,2.86 2.512,4.629l-0,21.197c0,3.423 -3.358,6.198 -7.5,6.198l-88.84,0c-4.142,0 -7.5,-2.775 -7.5,-6.198l0,-21.197c0,-1.768 0.914,-3.453 2.512,-4.629c0.65,-0.478 1.387,-0.854 2.176,-1.117" style="fill:currentColor;"/><path d="M78.46,165.645l0,-29.838c-18.687,-1.489 -33.417,-17.485 -33.417,-36.972c0,-20.468 16.252,-37.085 36.27,-37.085c2.529,0 4.999,0.265 7.382,0.77c4.998,-12.792 18.424,-21.961 34.185,-21.961c15.761,0 29.188,9.169 34.185,21.961c2.384,-0.505 4.853,-0.77 7.382,-0.77c20.018,0 36.27,16.617 36.27,37.085c0,19.486 -14.73,35.482 -33.417,36.972l-0,29.838c-0.267,-0.031 -0.539,-0.047 -0.815,-0.047l-87.21,0c-0.276,-0 -0.548,0.016 -0.815,0.047Zm19.362,-84.73c-2.826,-2.779 -6.282,-4.832 -10.074,-5.985c-1.039,3.417 -3.345,5.11 -6.917,5.079c-3.571,-0.058 -5.834,-1.808 -6.787,-5.25c-3.819,1.058 -7.326,3.024 -10.22,5.731c2.44,2.609 2.753,5.452 0.94,8.529c-1.836,3.064 -4.483,4.148 -7.941,3.253c-0.993,3.837 -1.044,7.856 -0.147,11.717c3.479,-0.809 6.098,0.342 7.857,3.45c1.735,3.122 1.351,5.956 -1.153,8.503c2.826,2.779 6.282,4.832 10.074,5.985c1.039,-3.417 3.345,-5.11 6.917,-5.079c3.571,0.058 5.834,1.808 6.787,5.25c3.819,-1.058 7.326,-3.024 10.22,-5.731c-2.44,-2.609 -2.753,-5.452 -0.94,-8.529c1.836,-3.064 4.483,-4.148 7.941,-3.253c0.993,-3.837 1.044,-7.856 0.147,-11.717c-3.479,0.809 -6.098,-0.342 -7.857,-3.45c-1.735,-3.122 -1.351,-5.956 1.153,-8.503Zm-13.582,11.39c3.38,2.008 4.493,6.382 2.485,9.762c-2.008,3.38 -6.382,4.493 -9.762,2.485c-3.38,-2.008 -4.493,-6.382 -2.485,-9.762c2.008,-3.38 6.382,-4.493 9.762,-2.485Zm45.383,8.109c-3.913,-0.732 -7.927,-0.733 -11.84,-0.003c0.583,3.125 -0.529,5.434 -3.334,6.929c-0.584,0.218 -1.16,0.456 -1.727,0.715c-3.041,0.926 -5.459,0.077 -7.256,-2.545c-3.284,2.249 -6.123,5.087 -8.374,8.37c2.621,1.798 3.469,4.217 2.542,7.257c-0.259,0.567 -0.498,1.143 -0.716,1.727c-1.496,2.805 -3.806,3.915 -6.93,3.331c-0.732,3.913 -0.733,7.927 -0.003,11.84c3.125,-0.583 5.434,0.529 6.929,3.334c0.218,0.584 0.456,1.16 0.715,1.727c0.926,3.041 0.077,5.459 -2.545,7.256c2.249,3.284 5.087,6.123 8.37,8.374c1.798,-2.621 4.217,-3.469 7.257,-2.542c0.567,0.259 1.143,0.498 1.727,0.716c2.805,1.496 3.915,3.806 3.331,6.93c3.913,0.732 7.927,0.733 11.84,0.003c-0.583,-3.125 0.529,-5.434 3.334,-6.929c0.584,-0.218 1.16,-0.456 1.727,-0.715c3.041,-0.926 5.459,-0.077 7.256,2.545c3.284,-2.249 6.123,-5.087 8.374,-8.37c-2.621,-1.798 -3.469,-4.217 -2.542,-7.257c0.259,-0.567 0.498,-1.143 0.716,-1.727c1.496,-2.805 3.806,-3.915 6.93,-3.331c0.732,-3.913 0.733,-7.927 0.003,-11.84c-3.125,0.583 -5.434,-0.529 -6.929,-3.334c-0.218,-0.584 -0.456,-1.16 -0.715,-1.727c-0.926,-3.041 -0.077,-5.459 2.545,-7.256c-2.249,-3.284 -5.087,-6.123 -8.37,-8.374c-1.798,2.621 -4.217,3.469 -7.257,2.542c-0.567,-0.259 -1.143,-0.498 -1.727,-0.716c-2.805,-1.496 -3.915,-3.806 -3.331,-6.93Zm-5.925,21.386c5.697,0.001 10.321,4.628 10.32,10.325c-0.001,5.697 -4.628,10.321 -10.325,10.32c-5.697,-0.001 -10.321,-4.628 -10.32,-10.325c0.001,-5.697 4.628,-10.321 10.325,-10.32Zm-12.482,-58.003c-3.65,0.875 -6.843,3.079 -8.954,6.183c2.104,1.431 2.804,3.369 2.099,5.814c-0.126,0.489 -0.217,0.986 -0.272,1.488c-0.208,2.536 -1.548,4.1 -4.023,4.693c0.875,3.65 3.079,6.843 6.183,8.954c1.431,-2.104 3.369,-2.804 5.814,-2.099c0.489,0.126 0.986,0.217 1.488,0.272c2.536,0.208 4.1,1.548 4.693,4.023c3.65,-0.875 6.843,-3.079 8.954,-6.183c-2.104,-1.431 -2.804,-3.369 -2.099,-5.814c0.126,-0.489 0.217,-0.986 0.272,-1.488c0.208,-2.536 1.548,-4.1 4.023,-4.693c-0.875,-3.65 -3.079,-6.843 -6.183,-8.954c-1.431,2.104 -3.369,2.804 -5.814,2.099c-0.489,-0.126 -0.986,-0.217 -1.488,-0.272c-2.536,-0.208 -4.1,-1.548 -4.693,-4.023Zm0.944,10.941c2.054,-1.419 4.874,-0.903 6.293,1.152c1.419,2.054 0.903,4.874 -1.152,6.293c-2.054,1.419 -4.874,0.903 -6.293,-1.152c-1.419,-2.054 -0.903,-4.874 1.152,-6.293Zm55.141,104.813l-0,25.649l-88.84,0l0,-25.649c0.267,0.031 0.539,0.047 0.815,0.047l87.21,0c0.276,-0 0.548,-0.016 0.815,-0.047Z" style="fill:currentColor;"/></g></svg>