<svg width="1200" height="1400" viewBox="0 0 1200 1400" fill="none" xmlns="http://www.w3.org/2000/svg">
  <rect width="1200" height="1400" rx="64" fill="#1D1A18"/>
  <rect width="1200" height="1400" rx="64" fill="url(#paint0_radial)"/>
  <rect width="1200" height="1400" rx="64" fill="url(#paint1_radial)"/>
  <rect x="82" y="84" width="1036" height="1232" rx="44" fill="#221E1B" stroke="#4B473E" stroke-width="2"/>
  <rect x="132" y="136" width="936" height="190" rx="32" fill="#272320" stroke="#4B473E"/>
  <circle cx="194" cy="198" r="18" fill="#97A18F" fill-opacity="0.22"/>
  <circle cx="246" cy="198" r="18" fill="#D7A13F" fill-opacity="0.22"/>
  <circle cx="298" cy="198" r="18" fill="#B1744F" fill-opacity="0.22"/>
  <rect x="168" y="242" width="246" height="18" rx="9" fill="#F4EFE8"/>
  <rect x="168" y="274" width="504" height="14" rx="7" fill="#A39B8F"/>
  <rect x="744" y="176" width="260" height="96" rx="24" fill="#1F1B19" stroke="#5A544B"/>
  <rect x="778" y="206" width="106" height="16" rx="8" fill="#E3E8DC"/>
  <rect x="778" y="236" width="164" height="12" rx="6" fill="#A39B8F"/>
  <circle cx="954" cy="224" r="26" fill="#97A18F" fill-opacity="0.22"/>
  <path d="M945 224L952 231L965 217" stroke="#E3E8DC" stroke-width="5" stroke-linecap="round" stroke-linejoin="round"/>
  <rect x="132" y="390" width="284" height="208" rx="30" fill="#272320" stroke="#4B473E"/>
  <rect x="448" y="390" width="620" height="208" rx="30" fill="#1F1B19" stroke="#4B473E"/>
  <rect x="132" y="636" width="936" height="260" rx="30" fill="#231F1C" stroke="#4B473E"/>
  <rect x="132" y="934" width="440" height="316" rx="30" fill="#272320" stroke="#4B473E"/>
  <rect x="608" y="934" width="460" height="316" rx="30" fill="#1F1B19" stroke="#4B473E"/>
  <rect x="168" y="430" width="118" height="16" rx="8" fill="#E3E8DC"/>
  <rect x="168" y="462" width="190" height="12" rx="6" fill="#A39B8F"/>
  <rect x="168" y="500" width="164" height="54" rx="18" fill="#97A18F" fill-opacity="0.12" stroke="#97A18F" stroke-opacity="0.32"/>
  <rect x="482" y="432" width="176" height="16" rx="8" fill="#F4EFE8"/>
  <rect x="482" y="464" width="218" height="12" rx="6" fill="#A39B8F"/>
  <rect x="482" y="512" width="150" height="44" rx="16" fill="#D7A13F" fill-opacity="0.12" stroke="#D7A13F" stroke-opacity="0.32"/>
  <rect x="744" y="512" width="176" height="44" rx="16" fill="#97A18F" fill-opacity="0.12" stroke="#97A18F" stroke-opacity="0.32"/>
  <path d="M345 517H418C441.196 517 460 498.196 460 475V474" stroke="url(#paint2_linear)" stroke-width="6" stroke-linecap="round"/>
  <path d="M640 534H714C737.196 534 756 552.804 756 576V576" stroke="url(#paint3_linear)" stroke-width="6" stroke-linecap="round"/>
  <circle cx="344" cy="517" r="14" fill="#D7A13F"/>
  <circle cx="640" cy="534" r="14" fill="#97A18F"/>
  <rect x="172" y="676" width="168" height="18" rx="9" fill="#F4EFE8"/>
  <rect x="172" y="710" width="302" height="12" rx="6" fill="#A39B8F"/>
  <rect x="172" y="762" width="856" height="26" rx="13" fill="#1D1A18"/>
  <rect x="172" y="762" width="602" height="26" rx="13" fill="url(#paint4_linear)"/>
  <rect x="172" y="816" width="182" height="16" rx="8" fill="#E3E8DC"/>
  <rect x="172" y="848" width="306" height="12" rx="6" fill="#A39B8F"/>
  <circle cx="934" cy="756" r="52" fill="#97A18F" fill-opacity="0.14"/>
  <path d="M919 755L932 768L958 742" stroke="#E3E8DC" stroke-width="8" stroke-linecap="round" stroke-linejoin="round"/>
  <rect x="172" y="980" width="158" height="16" rx="8" fill="#F4EFE8"/>
  <rect x="172" y="1012" width="228" height="12" rx="6" fill="#A39B8F"/>
  <rect x="172" y="1062" width="118" height="104" rx="24" fill="#322C27"/>
  <rect x="310" y="1062" width="118" height="104" rx="24" fill="#322C27"/>
  <rect x="448" y="1062" width="88" height="104" rx="24" fill="#322C27"/>
  <circle cx="230" cy="1114" r="28" fill="#97A18F" fill-opacity="0.18"/>
  <circle cx="368" cy="1114" r="28" fill="#D7A13F" fill-opacity="0.18"/>
  <circle cx="492" cy="1114" r="20" fill="#97A18F" fill-opacity="0.18"/>
  <rect x="648" y="980" width="182" height="16" rx="8" fill="#F4EFE8"/>
  <rect x="648" y="1012" width="280" height="12" rx="6" fill="#A39B8F"/>
  <rect x="648" y="1060" width="380" height="54" rx="18" fill="#97A18F" fill-opacity="0.12" stroke="#97A18F" stroke-opacity="0.32"/>
  <rect x="648" y="1132" width="318" height="18" rx="9" fill="#E3E8DC"/>
  <rect x="648" y="1164" width="360" height="12" rx="6" fill="#A39B8F"/>
  <defs>
    <radialGradient id="paint0_radial" cx="0" cy="0" r="1" gradientUnits="userSpaceOnUse" gradientTransform="translate(188 149) rotate(44.3721) scale(658.275 691.887)">
      <stop stop-color="#97A18F" stop-opacity="0.18"/>
      <stop offset="1" stop-color="#97A18F" stop-opacity="0"/>
    </radialGradient>
    <radialGradient id="paint1_radial" cx="0" cy="0" r="1" gradientUnits="userSpaceOnUse" gradientTransform="translate(1020 1218) rotate(-132.927) scale(614.601 655.989)">
      <stop stop-color="#B1744F" stop-opacity="0.16"/>
      <stop offset="1" stop-color="#B1744F" stop-opacity="0"/>
    </radialGradient>
    <linearGradient id="paint2_linear" x1="345" y1="517" x2="460" y2="474" gradientUnits="userSpaceOnUse">
      <stop stop-color="#D7A13F"/>
      <stop offset="1" stop-color="#97A18F"/>
    </linearGradient>
    <linearGradient id="paint3_linear" x1="640" y1="534" x2="756" y2="576" gradientUnits="userSpaceOnUse">
      <stop stop-color="#97A18F"/>
      <stop offset="1" stop-color="#B9C2B0"/>
    </linearGradient>
    <linearGradient id="paint4_linear" x1="172" y1="775" x2="774" y2="775" gradientUnits="userSpaceOnUse">
      <stop stop-color="#B9C2B0"/>
      <stop offset="1" stop-color="#97A18F"/>
    </linearGradient>
  </defs>
</svg>
